# xmcd CD database file
#
# Track frame offsets:
#	150
#	37126
#	62477
#	87003
#	98254
#	124580
#	147081
#	170632
#	181958
#	202414
#	235502
#	277587
#	310757
#
# Disc length: 4796 seconds
#
# Revision: 2
# Processed by: cddbd v1.5.2PL0 Copyright (c) Steve Scherf et al.
# Submitted via: CDex 1.70beta2
#
DISCID=a412ba0d
DTITLE=Laboratorium - Anthology 1971-1988 [CD09 - Anatomy Lesson)
DYEAR=2006
DGENRE=Jazz
TTITLE0=Lady On The Goat
TTITLE1=Make Up
TTITLE2=Lonely White Funk
TTITLE3=Room Nr. 210
TTITLE4=Polish Calypso
TTITLE5=Baby Dreams
TTITLE6=Anatomy Lesson
TTITLE7=I'm So Glad, Punk Is Dead
TTITLE8=Aria Wilka
TTITLE9=Pokoj 210
TTITLE10=Baby Dreams
TTITLE11=Polish Calypso
TTITLE12=Jechala Niewiasta Na Capie Do Miasta
EXTD=YEAR: 2006
EXTT0=
EXTT1=
EXTT2=
EXTT3=
EXTT4=
EXTT5=
EXTT6=
EXTT7=
EXTT8=
EXTT9=
EXTT10=
EXTT11=
EXTT12=
PLAYORDER=
